
<svg width="36px" height="36px" viewBox="192 0 36 36" version="1.1" xmlns="http://www.w3.org/2000/svg" xmlns:xlink="http://www.w3.org/1999/xlink">
    <!-- Generator: Sketch 42 (36781) - http://www.bohemiancoding.com/sketch -->
    <desc>Created with Sketch.</desc>
    <defs></defs>
    <g id="RSS-Icon" stroke="none" stroke-width="1" fill="none" fill-rule="evenodd" transform="translate(192.000000, 0.000000)">
        <ellipse id="Oval-5-Copy-2" fill="#0070DA" cx="18" cy="17.7850746" rx="18" ry="17.7850746"></ellipse>
        <g id="rss25" fill="#000000" transform="translate(12.000000, 11.856716)">
            <g id="Group" fill="none" transform="translate(-0.114035, -0.114035)">
                <path d="M0.592754386,10.107386 C0.245973684,10.4542807 0.0725263158,10.8754123 0.0725263158,11.3708947 C0.0725263158,11.8666053 0.245859649,12.2876228 0.592754386,12.6345175 C0.939649123,12.9812982 1.36089474,13.1547456 1.85637719,13.1547456 C2.35185965,13.1547456 2.77299123,12.9812982 3.11988596,12.6345175 C3.46666667,12.2876228 3.64011404,11.8666053 3.64011404,11.3708947 C3.64011404,10.8754123 3.46666667,10.4542807 3.11988596,10.107386 C2.77310526,9.76060526 2.35197368,9.58715789 1.85637719,9.58715789 C1.3607807,9.58715789 0.939649123,9.76060526 0.592754386,10.107386 Z" id="Shape" fill="#FFFFFF"></path>
                <path d="M3.55652632,5.57814035 C2.65222807,5.15997368 1.70448246,4.91069298 0.713517544,4.83018421 L0.667105263,4.83018421 C0.506087719,4.83018421 0.372894737,4.88286842 0.267640351,4.98812281 C0.137526316,5.09953509 0.0725263158,5.24515789 0.0725263158,5.42476316 L0.0725263158,6.67903509 C0.0725263158,6.8337807 0.123614035,6.96697368 0.225789474,7.0785 C0.327964912,7.19014035 0.456482456,7.2520614 0.611342105,7.26437719 C2.02971053,7.40064912 3.24213158,7.97207895 4.24860526,8.97855263 C5.25507895,9.98491228 5.82650877,11.1974474 5.9627807,12.6158158 C5.97521053,12.7706754 6.03713158,12.899193 6.14865789,13.0013684 C6.26018421,13.1036579 6.39326316,13.1548596 6.54812281,13.1548596 L7.80239474,13.1548596 C7.982,13.1548596 8.12750877,13.0898596 8.23903509,12.9597456 C8.3567193,12.8356754 8.40940351,12.6870877 8.39720175,12.5136404 C8.31657895,11.5227895 8.06718421,10.5750439 7.64924561,9.67074561 C7.23107895,8.76644737 6.669,7.96432456 5.96289474,7.26437719 C5.26294737,6.55827193 4.46082456,5.99619298 3.55652632,5.57814035 Z" id="Shape" fill="#FFFFFF"></path>
                <path d="M12.0390263,7.87286842 C11.3762544,6.38938596 10.4657982,5.07171053 9.30754386,3.91961404 C8.15544737,2.76135965 6.83777193,1.85090351 5.35428947,1.18813158 C3.87092105,0.525473684 2.31776316,0.153719298 0.694929825,0.0732105263 L0.667105263,0.0732105263 C0.506087719,0.0732105263 0.369815789,0.128973684 0.258289474,0.2405 C0.134447368,0.351912281 0.0725263158,0.49445614 0.0725263158,0.667903509 L0.0725263158,1.99641228 C0.0725263158,2.15127193 0.126807018,2.28594737 0.235140351,2.40055263 C0.343473684,2.51515789 0.475070175,2.57548246 0.629929825,2.58175439 C1.96163158,2.66237719 3.22673684,2.97836842 4.42524561,3.52961404 C5.62375439,4.08085965 6.66432456,4.79779825 7.54695614,5.68031579 C8.42947368,6.56294737 9.14641228,7.60351754 9.69765789,8.80202632 C10.2489035,10.0007632 10.5618158,11.2656404 10.6360526,12.5973421 C10.6423246,12.7522018 10.7026491,12.8839123 10.8171404,12.9922456 C10.9318596,13.1005789 11.0697281,13.1549737 11.2307456,13.1549737 L12.5592544,13.1549737 C12.7327018,13.1549737 12.8749035,13.0930526 12.9865439,12.9689825 C13.1105,12.8451404 13.1660351,12.6997456 13.1539474,12.5324561 C13.0735526,10.9095088 12.7017982,9.35635088 12.0390263,7.87286842 L12.0390263,7.87286842 Z" id="Shape" fill="#FFFFFF"></path>
            </g>
        </g>
    </g>
</svg>