
<svg width="36px" height="36px" viewBox="240 0 36 36" version="1.1" xmlns="http://www.w3.org/2000/svg" xmlns:xlink="http://www.w3.org/1999/xlink">
    <!-- Generator: Sketch 42 (36781) - http://www.bohemiancoding.com/sketch -->
    <desc>Created with Sketch.</desc>
    <defs></defs>
    <g id="Email-Icon" stroke="none" stroke-width="1" fill="none" fill-rule="evenodd" transform="translate(240.000000, 0.000000)">
        <ellipse id="Oval" fill="#0070DA" cx="18" cy="17.7850746" rx="18" ry="17.7850746"></ellipse>
        <g id="envelope4" fill="#000000" transform="translate(10.000000, 12.844776)">
            <g id="Group" fill="none" transform="translate(0.000000, -0.096491)">
                <path d="M1.53567123,3.47397368 C1.73808219,3.59970175 2.34816438,3.9732193 3.3660274,4.59423684 C4.38389041,5.21525439 5.16361644,5.69346491 5.70531507,6.02877193 C5.76482192,6.06553509 5.89128767,6.14542982 6.08471233,6.26855263 C6.27813699,6.39177193 6.43890411,6.49144737 6.56679452,6.56738596 C6.69479452,6.64332456 6.84953425,6.72852632 7.03112329,6.82279825 C7.21271233,6.91707018 7.38389041,6.98789474 7.54454795,7.03488596 C7.70531507,7.08216667 7.85413699,7.10561404 7.9910137,7.10561404 L8,7.10561404 L8.0089863,7.10561404 C8.14586301,7.10561404 8.29468493,7.08216667 8.45545205,7.03488596 C8.61610959,6.98789474 8.78739726,6.91697368 8.96887671,6.82279825 C9.15035616,6.72842982 9.30509589,6.64332456 9.43309589,6.56738596 C9.56109589,6.49144737 9.72175342,6.39177193 9.91517808,6.26855263 C10.1086027,6.14533333 10.2351781,6.06553509 10.2946849,6.02877193 C10.8421918,5.69336842 12.2351781,4.84173684 14.4732055,3.4737807 C14.907726,3.20659649 15.2706849,2.8842193 15.562411,2.50684211 C15.8542466,2.12965789 16,1.73394737 16,1.31990351 C16,0.973982456 15.8585205,0.677850877 15.5757808,0.431508772 C15.2930411,0.185166667 14.958137,0.0620438596 14.5713973,0.0620438596 L1.42849315,0.0620438596 C0.970191781,0.0620438596 0.617534247,0.198289474 0.370520548,0.470780702 C0.123506849,0.743368421 0,1.08407895 0,1.49281579 C0,1.82300877 0.163726027,2.18079825 0.491068493,2.56599123 C0.818410959,2.95118421 1.16668493,3.25387719 1.53567123,3.47397368 L1.53567123,3.47397368 Z" id="Shape" fill="#FFFFFF"></path>
                <path d="M10.6608219,7.02726316 C10.3215342,7.24735965 10.0462466,7.41911404 9.83484932,7.54214035 C9.62356164,7.66535965 9.34235616,7.79108772 8.99112329,7.91951754 C8.64,8.04794737 8.31265753,8.11211404 8.00909589,8.11211404 C7.68745205,8.11211404 7.36,8.04794737 7.00887671,7.91951754 C6.65775342,7.79108772 6.37643836,7.66535965 6.16515068,7.54214035 C5.95386301,7.41911404 5.67857534,7.24735965 5.33928767,7.02726316 C4.53567123,6.50842982 3.05654795,5.60430702 0.901808219,4.31508772 C0.562520548,4.11602632 0.261917808,3.88792105 0,3.63115789 L0,9.87298246 C0,10.219 0.139835616,10.5150351 0.419616438,10.7613772 C0.69939726,11.0078158 1.03572603,11.1309386 1.42860274,11.1309386 L14.5715068,11.1309386 C14.964274,11.1309386 15.3006027,11.0078158 15.5803836,10.7613772 C15.860274,10.5149386 16,10.219 16,9.87298246 L16,3.63115789 C15.744,3.88261404 15.4464658,4.1107193 15.1070685,4.31508772 C13.1548493,5.47848246 11.6725479,6.38260526 10.6608219,7.02726316 Z" id="Shape" fill="#FFFFFF"></path>
            </g>
        </g>
    </g>
</svg>