
<svg width="36px" height="36px" viewBox="0 0 36 36" version="1.1" xmlns="http://www.w3.org/2000/svg" xmlns:xlink="http://www.w3.org/1999/xlink">
    <!-- Generator: Sketch 42 (36781) - http://www.bohemiancoding.com/sketch -->
    <desc>Created with Sketch.</desc>
    <defs></defs>
    <g id="Facebook-Icon" stroke="none" stroke-width="1" fill="none" fill-rule="evenodd">
        <ellipse id="Oval-3" fill="#0070DA" cx="18" cy="17.7850746" rx="18" ry="17.7850746"></ellipse>
        <g id="facebook25" fill="#000000" transform="translate(14.000000, 9.880597)">
            <path d="M6.00212903,5.23713433 L6.00212903,3.85576119 C6.00212903,3.64835821 6.01374194,3.48776119 6.03740323,3.37432836 C6.06091935,3.26065672 6.11433871,3.14889552 6.19722581,3.03856716 C6.27996774,2.92835821 6.41409677,2.8521791 6.59932258,2.81002985 C6.78469355,2.76776119 7.03117742,2.74674627 7.33877419,2.74674627 L9.018,2.74674627 L9.018,-0.016 L6.3333871,-0.016 C4.77987097,-0.016 3.66430645,0.287164179 2.98625806,0.893492537 C2.30820968,1.4999403 1.96925806,2.39319403 1.96925806,3.57361194 L1.96925806,5.23713433 L-0.041516129,5.23713433 L-0.041516129,8 L1.9691129,8 L1.9691129,16.016 L6.00212903,16.016 L6.00212903,8 L8.68674194,8 L9.04151613,5.23713433 L6.00212903,5.23713433 L6.00212903,5.23713433 Z" id="Shape" fill="#FFFFFF"></path>
        </g>
    </g>
</svg>