
<svg width="36px" height="36px" viewBox="144 0 36 36" version="1.1" xmlns="http://www.w3.org/2000/svg" xmlns:xlink="http://www.w3.org/1999/xlink">
    <!-- Generator: Sketch 42 (36781) - http://www.bohemiancoding.com/sketch -->
    <desc>Created with Sketch.</desc>
    <defs></defs>
    <g id="GitHub-Icon" stroke="none" stroke-width="1" fill="none" fill-rule="evenodd" transform="translate(144.000000, 0.000000)">
        <ellipse id="Oval-5-Copy" fill="#0070DA" cx="18" cy="17.7850746" rx="18" ry="17.7850746"></ellipse>
        <g id="github10" fill="#000000" transform="translate(10.000000, 9.880597)">
            <path d="M11.9881905,1.09508197 C10.7706667,0.361311475 9.44152381,-0.00550819672 7.99987302,-0.00550819672 C6.55834921,-0.00550819672 5.2288254,0.361442623 4.01155556,1.09508197 C2.79415873,1.82885246 1.83034921,2.8242623 1.11987302,4.08157377 C0.409396825,5.33888525 0.0542222222,6.71186885 0.0542222222,8.20052459 C0.0542222222,9.98859016 0.559365079,11.5965902 1.56990476,13.0247869 C2.58031746,14.4529836 3.8855873,15.4413115 5.48571429,15.9897705 C5.672,16.0254426 5.80990476,16.0003934 5.89955556,15.9151475 C5.98920635,15.8296393 6.03403175,15.7227541 6.03403175,15.594623 C6.03403175,15.5732459 6.03225397,15.3809836 6.0288254,15.0177049 C6.02526984,14.6542951 6.02361905,14.3373115 6.02361905,14.0668852 L5.78565079,14.109377 C5.63390476,14.1380984 5.44253968,14.1502951 5.21142857,14.1467541 C4.98044444,14.1434754 4.74069841,14.1184262 4.49244444,14.072 C4.24406349,14.0258361 4.01307937,13.919082 3.7992381,13.7517377 C3.58552381,13.5842623 3.43377778,13.3651148 3.34412698,13.0945574 L3.24063492,12.8486557 C3.17168254,12.6849836 3.06311111,12.5032131 2.91479365,12.3038689 C2.76647619,12.1043934 2.61650794,11.9690492 2.4647619,11.8978361 L2.39238095,11.844459 C2.34412698,11.8087869 2.29930159,11.7659016 2.25790476,11.7160656 C2.21650794,11.6662295 2.18552381,11.6163934 2.1648254,11.5664262 C2.14412698,11.5165902 2.16126984,11.475541 2.21650794,11.4434098 C2.27174603,11.4112787 2.37168254,11.395541 2.51657143,11.395541 L2.72342857,11.427541 C2.86133333,11.456 3.032,11.541377 3.23555556,11.6839344 C3.43898413,11.8263607 3.60622222,12.011541 3.73726984,12.2393443 C3.896,12.531541 4.0872381,12.7540984 4.31149206,12.9072787 C4.53561905,13.060459 4.76152381,13.136918 4.98907937,13.136918 C5.21663492,13.136918 5.41320635,13.119082 5.57879365,13.083541 C5.74425397,13.048 5.89942857,12.9944918 6.04431746,12.9232787 C6.1064127,12.4459016 6.27542857,12.079082 6.5512381,11.8226885 C6.15809524,11.7799344 5.80469841,11.7156721 5.49079365,11.6302951 C5.17701587,11.5447869 4.8528254,11.4059016 4.51834921,11.213377 C4.18374603,11.0211148 3.90615873,10.7824262 3.68546032,10.4975738 C3.4647619,10.2125902 3.28368254,9.83855738 3.14234921,9.37560656 C3.00101587,8.91252459 2.93028571,8.37836066 2.93028571,7.77285246 C2.93028571,6.91081967 3.20279365,6.17718033 3.74768254,5.57167213 C3.49244444,4.92354098 3.51657143,4.19698361 3.82006349,3.392 C4.02006349,3.32786885 4.31669841,3.376 4.70984127,3.5362623 C5.10298413,3.69652459 5.39085714,3.83383607 5.57371429,3.94767213 C5.75657143,4.0615082 5.90311111,4.15790164 6.01346032,4.23619672 C6.65498413,4.05101639 7.31707937,3.95842623 7.99987302,3.95842623 C8.68266667,3.95842623 9.34488889,4.05101639 9.98653968,4.23619672 L10.3796825,3.97980328 C10.6485079,3.80878689 10.9659683,3.65206557 11.3313016,3.50963934 C11.6968889,3.36721311 11.976381,3.328 12.1695238,3.39213115 C12.479873,4.19711475 12.5074286,4.92367213 12.2521905,5.57180328 C12.7970794,6.17731148 13.0695873,6.91108197 13.0695873,7.77298361 C13.0695873,8.3784918 12.9987302,8.91436066 12.8575238,9.38098361 C12.7160635,9.8477377 12.5334603,10.2215082 12.3093333,10.5029508 C12.0850794,10.7843934 11.8057143,11.0212459 11.4712381,11.2135082 C11.1366349,11.4059016 10.8124444,11.5447869 10.4986667,11.6302951 C10.1847619,11.7158033 9.83136508,11.7800656 9.43822222,11.8228197 C9.7968254,12.1433443 9.97612698,12.6490492 9.97612698,13.3400656 L9.97612698,15.5943607 C9.97612698,15.7224918 10.0193016,15.829377 10.1055238,15.9147541 C10.191746,16.0001311 10.327873,16.0251803 10.5141587,15.9895082 C12.1144127,15.4410492 13.4196825,14.4527213 14.4300952,13.0243934 C15.4405079,11.5963279 15.9457778,9.98832787 15.9457778,8.20013115 C15.9453968,6.7117377 15.5899683,5.33888525 14.879746,4.08157377 C14.1692698,2.8242623 13.2054603,1.82885246 11.9881905,1.09508197 Z" id="Shape" fill="#FFFFFF"></path>
        </g>
    </g>
</svg>