
<svg width="36px" height="36px" viewBox="96 0 36 36" version="1.1" xmlns="http://www.w3.org/2000/svg" xmlns:xlink="http://www.w3.org/1999/xlink">
    <!-- Generator: Sketch 42 (36781) - http://www.bohemiancoding.com/sketch -->
    <desc>Created with Sketch.</desc>
    <defs></defs>
    <g id="LinkedIn-Icon" stroke="none" stroke-width="1" fill="none" fill-rule="evenodd" transform="translate(96.000000, 0.000000)">
        <ellipse id="Oval-5" fill="#0070DA" cx="18" cy="17.7850746" rx="18" ry="17.7850746"></ellipse>
        <g id="linkedin10" fill="#000000" transform="translate(12.000000, 11.856716)">
            <g id="Group" fill="none">
                <rect id="Rectangle-path" fill="#FFFFFF" x="0.206349206" y="4.225" width="2.77395238" height="8.746725"></rect>
                <path d="M9.77001587,4.02880833 C9.41695238,4.02880833 9.09607937,4.07441667 8.80739683,4.16563333 C8.51881746,4.25685 8.27511905,4.38479167 8.07609524,4.54956667 C7.8771746,4.71434167 7.71880159,4.86730833 7.60118254,5.00846667 C7.48934127,5.14258333 7.38007937,5.29869167 7.27329365,5.47538333 L7.27329365,4.23160833 L4.50769841,4.23160833 L4.51615873,4.6553 C4.52183333,4.93783333 4.52461905,5.80861667 4.52461905,7.26786667 C4.52461905,8.727225 4.51904762,10.6306417 4.50780159,12.9784417 L7.27329365,12.9784417 L7.27329365,8.09748333 C7.27329365,7.7974 7.30403968,7.559175 7.3657381,7.38248333 C7.48356349,7.08229167 7.66123016,6.83085 7.89956349,6.62794167 C8.13779365,6.42481667 8.43338889,6.32330833 8.78645238,6.32330833 C9.26838095,6.32330833 9.62288889,6.498375 9.84987302,6.84850833 C10.076754,7.19853333 10.190246,7.68256667 10.190246,8.30039167 L10.190246,12.978225 L12.9558413,12.978225 L12.9558413,7.96520833 C12.9556349,6.676475 12.664373,5.69833333 12.0815397,5.030675 C11.4989127,4.3628 10.7281984,4.02880833 9.77001587,4.02880833 Z" id="Shape" fill="#FFFFFF"></path>
                <path d="M1.60776984,0.0215583333 C1.14265873,0.0215583333 0.765865079,0.164341667 0.47718254,0.449691667 C0.1885,0.735041667 0.0442619048,1.09535833 0.0442619048,1.53085833 C0.0442619048,1.96029167 0.184373016,2.31930833 0.464595238,2.60758333 C0.744714286,2.89585833 1.11459524,3.04005 1.57413492,3.04005 L1.59095238,3.04005 C2.0617381,3.04005 2.44142063,2.89596667 2.73,2.60758333 C3.01857937,2.31930833 3.16003175,1.9604 3.15446032,1.53085833 C3.14888889,1.09535833 3.00588889,0.735041667 2.72576984,0.449691667 C2.44565079,0.164233333 2.07288095,0.0215583333 1.60776984,0.0215583333 L1.60776984,0.0215583333 Z" id="Shape" fill="#FFFFFF"></path>
            </g>
        </g>
    </g>
</svg>