
<svg width="36px" height="36px" viewBox="48 0 36 36" version="1.1" xmlns="http://www.w3.org/2000/svg" xmlns:xlink="http://www.w3.org/1999/xlink">
    <!-- Generator: Sketch 42 (36781) - http://www.bohemiancoding.com/sketch -->
    <desc>Created with Sketch.</desc>
    <defs></defs>
    <g id="Twitter-Icon" stroke="none" stroke-width="1" fill="none" fill-rule="evenodd" transform="translate(48.000000, 0.000000)">
        <ellipse id="Oval-4" fill="#0070DA" cx="18" cy="17.7850746" rx="18" ry="17.7850746"></ellipse>
        <g id="twitter16" fill="#000000" transform="translate(10.000000, 11.856716)">
            <path d="M14.131,2.0395 C14.843875,1.61175 15.326,1.0075 15.57725,0.22675 C14.92525,0.613625 14.229375,0.878375 13.489375,1.021 C12.8375,0.3285 12.0365,-0.017875 11.085875,-0.017875 C10.176125,-0.017875 9.4005,0.302875 8.75875,0.9445 C8.117125,1.586125 7.796375,2.36175 7.796375,3.2715 C7.796375,3.515875 7.8235,3.767125 7.877875,4.025125 C6.5335,3.95725 5.272375,3.6195 4.094375,3.011875 C2.916375,2.404125 1.916625,1.5945 1.095125,0.582875 C0.796375,1.092 0.647,1.645375 0.647,2.242875 C0.647,2.806375 0.779375,3.32925 1.04425,3.81125 C1.309,4.29325 1.6655,4.683625 2.113625,4.982375 C1.584,4.962 1.088375,4.82275 0.62675,4.56475 L0.62675,4.6055 C0.62675,5.399875 0.87625,6.097375 1.37525,6.698375 C1.87425,7.299375 2.504,7.67775 3.264375,7.833875 C2.97925,7.9085 2.690625,7.945875 2.39875,7.945875 C2.208625,7.945875 2.0015,7.928875 1.7775,7.895125 C1.988,8.553625 2.375,9.095 2.9385,9.519375 C3.502,9.943875 4.14025,10.162625 4.853125,10.176375 C3.65825,11.113125 2.297,11.581625 0.769375,11.581625 C0.477375,11.581625 0.212625,11.56825 -0.025,11.541 C1.502625,12.525375 3.186375,13.0175 5.026375,13.0175 C6.194125,13.0175 7.290625,12.832625 8.315625,12.462625 C9.341,12.092625 10.21675,11.597 10.94325,10.975625 C11.669625,10.3545 12.296,9.639875 12.822125,8.831875 C13.34825,8.024 13.74025,7.1805 13.998375,6.30125 C14.256375,5.421875 14.385375,4.541125 14.385375,3.658375 C14.385375,3.46825 14.382,3.32575 14.375125,3.230625 C15.02025,2.762375 15.57025,2.195375 16.025125,1.530125 C15.39375,1.80175 14.762125,1.971375 14.131,2.0395 Z" id="Shape" fill="#FFFFFF"></path>
        </g>
    </g>
</svg>